<svg xmlns="http://www.w3.org/2000/svg" version="1.1" xmlns:xlink="http://www.w3.org/1999/xlink" xmlns:svgjs="http://svgjs.dev/svgjs" width="1500" height="1666" viewBox="0 0 1500 1666"><g transform="matrix(1,0,0,1,-0.5262626639982955,-2.965012215830029)"><svg viewBox="0 0 253 281" data-background-color="#ffffff" preserveAspectRatio="xMidYMid meet" height="1666" width="1500" xmlns="http://www.w3.org/2000/svg" xmlns:xlink="http://www.w3.org/1999/xlink"><g id="tight-bounds" transform="matrix(1,0,0,1,0.08876296932771766,0.5001011000289566)"><svg viewBox="0 0 252.82247406134454 280" height="280" width="252.82247406134454"><g><svg viewBox="0 0 278.2696 308.1826023943373" height="280" width="252.82247406134454"><g><svg viewBox="0 0 278.2696 308.1826023943373" height="308.1826023943373" width="278.2696"><g id="textblocktransform"><svg viewBox="0 0 278.2696 308.1826023943373" height="308.1826023943373" width="278.2696" id="textblock"><g><svg viewBox="0 0 278.2696 278.2696" height="278.2696" width="278.2696"><g transform="matrix(1,0,0,1,94.52365370616646,89.94321971048298)"><svg viewBox="0 0 89.22229258766711 98.38316057903407" height="98.38316057903407" width="89.22229258766711"><g id="icon-0"><svg xmlns="http://www.w3.org/2000/svg" xmlns:xlink="http://www.w3.org/1999/xlink" version="1.1" x="0" y="0" viewBox="2.7552723190174166 0.6293762588434457 42.41368297383108 46.76849318417376" enable-background="new 0 0 48 48" xml:space="preserve" height="98.38316057903407" width="89.22229258766711" class="icon-jxe-0" data-fill-palette-color="accent" id="jxe-0"><g fill="#713f12" data-fill-palette-color="accent"><g fill="#713f12" data-fill-palette-color="accent"><g fill="#713f12" data-fill-palette-color="accent"><path fill="#713f12" d="M4.2 25.8C3.3 18.8 17.4 18.2 21.3 17.9 27.7 17.4 34.9 18.2 40.7 21.2 43.1 22.3 43.7 24.2 42.2 27 40.5 28.7 37.6 29.3 35.3 29.9 32 30.8 28.6 31 25.2 31.1 19.9 31.3 6.1 30.8 4 24.3 3.8 23.5 2.5 23.9 2.8 24.6 3.9 28 6.3 29.2 9.6 30.2 15.2 31.9 21.1 32.5 27 32.4 31.5 32.3 46.3 31 45.1 23.6 44.7 21.4 40.3 19.6 38.6 18.9 33.2 16.8 27.1 16.4 21.3 16.6 16 16.9 1.9 17.9 2.9 25.8 3 26.6 4.3 26.6 4.2 25.8" data-fill-palette-color="accent"></path></g></g><g fill="#713f12" data-fill-palette-color="accent"><g fill="#713f12" data-fill-palette-color="accent"><path fill="#713f12" d="M2.8 24.7C3.6 30 6.7 33.8 10.2 37.7 13.5 41.4 18.8 41.3 23.4 41.5 28.3 41.7 33.3 40.5 37.6 38.1 41.8 35.7 43.1 30.4 44.9 26.3 45.2 25.6 44.1 24.9 43.8 25.7 42.4 29 41.3 32.6 39 35.4 36 39.1 29.5 40.1 25.1 40.2 20.4 40.4 14.7 40.2 11.2 36.8S4.9 29.2 4.2 24.3C3.9 23.5 2.7 23.9 2.8 24.7" data-fill-palette-color="accent"></path></g></g><g fill="#713f12" data-fill-palette-color="accent"><g fill="#713f12" data-fill-palette-color="accent"><path fill="#713f12" d="M34.4 39.1L39.5 46.6C39.9 47.3 41 46.6 40.6 46 39 43.5 37.3 40.9 35.5 38.5 35 37.8 33.9 38.4 34.4 39.1" data-fill-palette-color="accent"></path></g></g><g fill="#713f12" data-fill-palette-color="accent"><g fill="#713f12" data-fill-palette-color="accent"><path fill="#713f12" d="M8.5 47.2C10.6 45.1 11.9 42.3 13.7 40 14.2 39.4 13.3 38.5 12.8 39.1 11 41.4 9.6 44.2 7.6 46.3 7 46.9 7.9 47.8 8.5 47.2" data-fill-palette-color="accent"></path></g></g><g fill="#713f12" data-fill-palette-color="accent"><g fill="#713f12" data-fill-palette-color="accent"><path fill="#713f12" d="M19.2 1.4C19.9 3.9 18.3 5.6 18.4 7.9 18.5 9.9 22.5 12.3 20.5 14.4 19.9 15 20.8 15.9 21.4 15.3 23 13.7 22.3 11.8 21 10.1 18.9 7.4 21.4 4.2 20.5 1.1 20.2 0.3 18.9 0.6 19.2 1.4" data-fill-palette-color="accent"></path></g></g><g fill="#713f12" data-fill-palette-color="accent"><g fill="#713f12" data-fill-palette-color="accent"><path fill="#713f12" d="M23.3 4.1C23.2 5.5 22.9 7 23.8 8.2L25.3 10.3C25.6 10.7 25.8 11.2 25.9 11.8 25.5 12.1 25 12.3 24.6 12.5 23.9 12.9 24.5 14 25.2 13.6 26.4 13 27.8 12.4 27 10.8 26.4 9.7 25.7 8.6 24.9 7.6 24.2 6.7 24.5 5.3 24.6 4.2 24.6 3.3 23.4 3.3 23.3 4.1" data-fill-palette-color="accent"></path></g></g><g fill="#713f12" data-fill-palette-color="accent"><g fill="#713f12" data-fill-palette-color="accent"><path fill="#713f12" d="M14.5 7.7C14.3 9.5 14.6 11.5 16.3 12.5 17 12.9 17.6 11.8 16.9 11.4 15.6 10.7 15.5 9.1 15.7 7.7 15.8 6.9 14.6 6.9 14.5 7.7" data-fill-palette-color="accent"></path></g></g><g fill="#713f12" data-fill-palette-color="accent"><g fill="#713f12" data-fill-palette-color="accent"><path fill="#713f12" d="M9.9 23.4C14.8 26.5 20 28.7 25.9 28.8 27.9 28.8 32.3 27.1 30.8 24.3 30.4 23.5 29.8 23.4 29 23.4 25.7 23.5 22.8 23.7 19.6 22.8 18.1 22.4 16.8 21.7 15.5 20.8 15 20.5 14.2 19.6 13.5 19.6 12.2 19.6 11 20.8 10.2 21.7 9.6 22.3 10.5 23.2 11.1 22.6 13.8 19.9 15.4 22.7 18.2 23.6 20.6 24.4 22.9 24.8 25.4 24.9 26.6 24.9 27.8 24.8 29 24.7 28 27 26.5 27.9 24.6 27.6 23.3 27.5 21.9 27.3 20.7 27 17.1 26.2 13.8 24.3 10.7 22.4 9.8 21.9 9.2 22.9 9.9 23.4" data-fill-palette-color="accent"></path></g></g><g fill="#713f12" data-fill-palette-color="accent"><g fill="#713f12" data-fill-palette-color="accent"><path fill="#713f12" d="M22.1 18.6C21.6 19.3 21.1 20 20.6 20.8 20.3 21.3 20.4 21.7 20.7 22.1 21.2 22.6 22 22.9 22.6 23.2 23.3 23.6 24 23.8 24.8 24S25.9 23 25.1 22.8C24.4 22.7 23.8 22.4 23.2 22.1 22.9 22 21.6 21.4 21.5 21.1 21.5 21.3 21.5 21.4 21.4 21.6 21.8 20.7 22.5 19.9 23 19.2 23.7 18.5 22.6 17.9 22.1 18.6" data-fill-palette-color="accent"></path></g></g><g fill="#713f12" data-fill-palette-color="accent"><g fill="#713f12" data-fill-palette-color="accent"><path fill="#713f12" d="M22.6 19.5C25.2 20.9 27.8 21.8 30.7 22.4 31.8 22.6 32.9 22.7 34 22.8 36 22.9 37.4 22 37.7 24.5L38.3 23.9C35.7 24.1 33 24.3 30.4 24.4 29.6 24.5 29.6 25.7 30.4 25.7 33 25.5 35.7 25.3 38.3 25.2 38.6 25.2 39 24.9 38.9 24.6 38.8 23.1 39 21.6 37.2 21.6 32.1 21.5 27.8 21 23.3 18.6 22.5 18 21.9 19.1 22.6 19.5" data-fill-palette-color="accent"></path></g></g><g fill="#713f12" data-fill-palette-color="accent"><g fill="#713f12" data-fill-palette-color="accent"><path fill="#713f12" d="M18.3 30.1C20.1 29.6 21.9 29.2 23.8 29 24.6 28.9 24.6 27.6 23.8 27.7 21.8 28 19.9 28.3 18 28.9 17.2 29.1 17.5 30.3 18.3 30.1" data-fill-palette-color="accent"></path></g></g><g fill="#713f12" data-fill-palette-color="accent"><g fill="#713f12" data-fill-palette-color="accent"><path fill="#713f12" d="M11.6 27.8C13.3 27.8 15 27.5 16.7 26.9 17.5 26.6 17.1 25.4 16.4 25.7 14.9 26.2 13.3 26.5 11.7 26.5 10.8 26.5 10.8 27.8 11.6 27.8" data-fill-palette-color="accent"></path></g></g><g fill="#713f12" data-fill-palette-color="accent"><g fill="#713f12" data-fill-palette-color="accent"><path fill="#713f12" d="M8.2 25.2C9.5 25.4 10.9 25.3 12.2 25.1 13 25 12.7 23.8 11.9 23.9 10.7 24.1 9.5 24.1 8.3 23.9 7.4 23.9 7.5 25.1 8.2 25.2" data-fill-palette-color="accent"></path></g></g><g fill="#713f12" data-fill-palette-color="accent"><g fill="#713f12" data-fill-palette-color="accent"><path fill="#713f12" d="M29 28C32.8 28.3 36.5 26.9 40.2 26.6 41 26.6 41 25.3 40.2 25.3 36.4 25.5 32.8 26.9 29 26.7 28.2 26.7 28.2 27.9 29 28" data-fill-palette-color="accent"></path></g></g><g fill="#713f12" data-fill-palette-color="accent"><g fill="#713f12" data-fill-palette-color="accent"><path fill="#713f12" d="M18.7 23.4C20 23.4 21.4 23.2 22.7 22.9 23.5 22.7 23.2 21.5 22.4 21.7 21.2 22 20 22.1 18.8 22.2 17.9 22.2 17.9 23.4 18.7 23.4" data-fill-palette-color="accent"></path></g></g><g fill="#713f12" data-fill-palette-color="accent"><g fill="#713f12" data-fill-palette-color="accent"><path fill="#713f12" d="M15.1 21.4C17.2 21.3 19.2 21.2 21.3 20.9 22.1 20.8 22.1 19.6 21.3 19.6 19.3 19.8 17.2 20 15.1 20.1 14.3 20.2 14.3 21.4 15.1 21.4" data-fill-palette-color="accent"></path></g></g><g fill="#713f12" data-fill-palette-color="accent"><g fill="#713f12" data-fill-palette-color="accent"><path fill="#713f12" d="M31.5 21.9C33.3 21.6 35 21.3 36.8 21 37.6 20.9 37.3 19.7 36.5 19.8 34.7 20.1 33 20.4 31.2 20.7 30.4 20.8 30.7 22 31.5 21.9" data-fill-palette-color="accent"></path></g></g><g fill="#713f12" data-fill-palette-color="accent"><g fill="#713f12" data-fill-palette-color="accent"><path fill="#713f12" d="M26.2 20.7C26.6 20.4 27.2 20.5 27.7 20.5H29.7C30.5 20.5 30.5 19.2 29.7 19.2H27.5C26.9 19.2 26.2 19.1 25.7 19.5 24.9 20.1 25.6 21.1 26.2 20.7" data-fill-palette-color="accent"></path></g></g></g></svg></g></svg></g><g id="text-0"><path d="M33.128 100.516v0c-0.893 2.455-2.072 4.409-3.535 5.864-1.457 1.457-3.18 2.354-5.17 2.691-1.981 0.333-4.174 0.062-6.579-0.813v0c-2.211-0.805-4.116-1.887-5.715-3.247-1.605-1.362-2.856-2.928-3.754-4.698-0.896-1.776-1.39-3.703-1.482-5.781-0.095-2.072 0.265-4.225 1.079-6.461v0c0.652-1.793 1.37-3.094 2.153-3.906 0.783-0.811 1.725-1.017 2.824-0.617v0c0.593 0.216 1.068 0.477 1.423 0.784 0.359 0.315 0.477 0.644 0.352 0.987v0c-0.089 0.244-0.254 0.474-0.495 0.69-0.25 0.22-0.522 0.471-0.816 0.753v0c-0.513 0.478-1.061 1-1.642 1.567-0.581 0.567-1.055 1.353-1.42 2.358v0c-0.573 1.574-0.603 3.154-0.092 4.741 0.506 1.584 1.494 3.048 2.965 4.39 1.471 1.342 3.384 2.441 5.738 3.298v0c2.186 0.796 4.053 1.012 5.6 0.648 1.555-0.368 2.893-1.292 4.012-2.773 1.125-1.479 2.144-3.471 3.055-5.976v0l-11.878-5.872 1.07-2.942c0.18-0.493 0.416-0.775 0.711-0.844 0.29-0.078 0.766 0.003 1.428 0.244v0c0.15 0.055 0.297 0.108 0.441 0.16 0.15 0.055 0.295 0.122 0.436 0.201v0l9.074 4.597c0.676 0.359 1.252 0.728 1.73 1.107 0.469 0.383 0.652 0.832 0.55 1.346v0c-0.291 1.401-0.606 2.725-0.948 3.973-0.343 1.254-0.715 2.431-1.115 3.531z" fill="#06b6d4" data-fill-palette-color="primary"></path><path d="M44.466 75.456v0l-5.36-2.691c-1.466-2.252-2.654-4.323-3.561-6.213-0.908-1.89-1.467-3.559-1.679-5.005-0.221-1.445-0.019-2.602 0.607-3.47v0c0.35-0.485 0.754-0.723 1.212-0.712 0.463 0.006 0.929 0.177 1.398 0.515v0c0.421 0.303 0.793 0.645 1.117 1.025 0.324 0.381 0.548 0.751 0.674 1.112 0.125 0.361 0.095 0.67-0.091 0.929v0c-0.167 0.232-0.426 0.438-0.778 0.62-0.357 0.177-0.71 0.508-1.06 0.994v0c-0.229 0.318-0.191 0.96 0.114 1.924 0.309 0.959 0.821 2.09 1.537 3.392 0.718 1.312 1.584 2.635 2.597 3.97 1.014 1.344 2.105 2.548 3.273 3.61zM43.749 78.994v0c-0.202 0.28-0.4 0.453-0.594 0.519-0.193 0.074-0.495-0.029-0.908-0.31-0.412-0.28-1.025-0.795-1.837-1.544v0l-12.143-11.015 1.603-2.225c0.229-0.318 0.667-0.437 1.313-0.357 0.646 0.08 1.266 0.334 1.859 0.761v0c0.28 0.202 0.656 0.591 1.126 1.167 0.466 0.581 0.947 1.21 1.443 1.887 0.49 0.673 0.919 1.272 1.285 1.798v0l2.011 2.701 0.651-1.313 4.908 4.393c0.195 0.173 0.285 0.435 0.27 0.785-0.005 0.348-0.07 0.711-0.194 1.089-0.13 0.373-0.272 0.713-0.427 1.019-0.155 0.306-0.277 0.521-0.366 0.645z" fill="#06b6d4" data-fill-palette-color="primary"></path><path d="M62.365 57.301l-2.005 1.87c-0.326 0.304-0.709 0.312-1.151 0.024-0.442-0.279-0.851-0.62-1.227-1.023v0c-0.639-0.685-1.175-1.327-1.605-1.925-0.431-0.598-0.914-1.257-1.449-1.975v0l-7.542-10.158 2.004-1.87c0.379-0.354 0.822-0.376 1.329-0.067 0.507 0.309 1.009 0.731 1.508 1.265v0c0.254 0.272 0.498 0.572 0.731 0.9 0.238 0.333 0.603 0.841 1.097 1.526v0l3.821 5.176c0.808 1.1 1.475 2.028 1.998 2.785 0.533 0.757 0.993 1.4 1.38 1.931 0.386 0.531 0.756 1.044 1.111 1.541zM47.808 40.665v0c-0.535 0.499-1.169 0.75-1.902 0.753-0.729-0.002-1.37-0.299-1.923-0.892v0c-0.658-0.705-0.942-1.467-0.853-2.287 0.094-0.815 0.437-1.499 1.031-2.052v0c0.554-0.517 1.17-0.787 1.848-0.811 0.678-0.024 1.319 0.288 1.921 0.934v0c0.608 0.651 0.89 1.397 0.847 2.237-0.034 0.841-0.357 1.547-0.969 2.118z" fill="#06b6d4" data-fill-palette-color="primary"></path><path d="M78.612 44.893l-2.295 1.501c-0.389 0.255-0.852 0.216-1.387-0.117-0.533-0.342-0.997-0.837-1.389-1.486v0c-0.462-0.754-0.976-1.681-1.544-2.779-0.562-1.102-1.117-2.192-1.664-3.272v0l-4.142-8.334c-0.516-1.068-1.054-1.963-1.613-2.686-0.569-0.724-1.102-1.344-1.599-1.861-0.491-0.52-0.874-0.989-1.147-1.406v0c-0.156-0.239-0.106-0.574 0.153-1.005 0.26-0.44 0.602-0.882 1.026-1.327 0.426-0.453 0.814-0.795 1.165-1.024v0c0.367-0.24 0.87-0.188 1.508 0.157 0.637 0.354 1.182 0.879 1.638 1.573v0c0.102 0.156 0.36 0.599 0.774 1.329 0.41 0.724 0.842 1.578 1.294 2.561v0l3.891 8.224c0.807 1.72 1.68 3.388 2.619 5.006 0.934 1.621 1.837 3.27 2.712 4.946z" fill="#06b6d4" data-fill-palette-color="primary"></path><path d="M96.801 35.688l-2.524 1.07c-0.428 0.182-0.876 0.061-1.344-0.361-0.464-0.431-0.832-1.001-1.104-1.709v0c-0.321-0.824-0.663-1.827-1.027-3.008-0.358-1.184-0.71-2.356-1.058-3.515v0l-2.599-8.936c-0.319-1.143-0.689-2.119-1.113-2.929-0.432-0.813-0.846-1.518-1.243-2.115-0.391-0.599-0.684-1.128-0.879-1.587v0c-0.112-0.263-0.002-0.584 0.328-0.963 0.334-0.387 0.749-0.762 1.245-1.124 0.5-0.371 0.942-0.638 1.328-0.801v0c0.404-0.171 0.889-0.031 1.457 0.422 0.564 0.461 1.008 1.074 1.332 1.839v0c0.073 0.171 0.248 0.653 0.526 1.444 0.275 0.786 0.549 1.702 0.82 2.75v0l2.372 8.784c0.49 1.835 1.053 3.632 1.691 5.391 0.631 1.761 1.229 3.544 1.792 5.347z" fill="#06b6d4" data-fill-palette-color="primary"></path><path d="M133.982 27.743v0c-0.465 0.005-0.828-0.276-1.087-0.845-0.253-0.575-0.383-1.215-0.391-1.919v0c-0.012-1.017 0.085-2.676 0.29-4.979v0l1.808-19.963 3.13-0.037c0.837-0.01 1.3 0.317 1.388 0.981 0.081 0.664 0.041 1.794-0.119 3.391v0l-1.609 16.63c-0.047 0.552-0.067 1.101-0.06 1.646 0.007 0.552 0.053 1.099 0.139 1.644v0l8.401-2.054c0.285-0.057 0.507-0.106 0.666-0.147 0.152-0.042 0.268-0.063 0.349-0.064v0c0.312-0.004 0.471 0.177 0.475 0.543v0c0.008 0.651-0.094 1.334-0.305 2.047-0.211 0.707-0.51 1.302-0.897 1.786-0.386 0.49-0.869 0.738-1.446 0.745v0l-1.177 0.014c-1.954 0.023-3.552 0.082-4.794 0.176-1.242 0.094-2.228 0.183-2.958 0.264-0.73 0.088-1.331 0.135-1.803 0.141z" fill="#06b6d4" data-fill-palette-color="primary"></path><path d="M164.512 30.735v0c-1.954-0.461-3.318-1.435-4.094-2.923-0.777-1.481-0.911-3.302-0.401-5.462v0c0.426-1.805 1.068-3.398 1.927-4.78 0.865-1.38 1.886-2.522 3.063-3.426 1.183-0.902 2.46-1.512 3.833-1.83 1.379-0.316 2.793-0.304 4.242 0.038v0c1.727 0.408 2.963 1.089 3.707 2.043 0.74 0.946 0.947 2.108 0.622 3.486v0c-0.33 1.397-1.08 2.507-2.251 3.331-1.177 0.822-2.723 1.396-4.637 1.722-1.914 0.327-4.141 0.46-6.682 0.4v0l0.046-2.406c1.446 0.15 2.803 0.146 4.07-0.013 1.272-0.151 2.349-0.504 3.231-1.061 0.883-0.557 1.441-1.333 1.677-2.329v0c0.162-0.686 0.152-1.238-0.029-1.656-0.181-0.418-0.618-0.709-1.31-0.873v0c-1.041-0.246-2.015-0.073-2.92 0.52-0.905 0.592-1.686 1.456-2.343 2.592-0.656 1.129-1.146 2.379-1.469 3.751v0c-0.438 1.857-0.444 3.167-0.016 3.93 0.423 0.755 1.194 1.265 2.313 1.529v0c1.171 0.276 2.236 0.333 3.197 0.171 0.967-0.161 1.815-0.371 2.545-0.629v0c0.238-0.081 0.439-0.139 0.605-0.175 0.174-0.041 0.312-0.049 0.415-0.024v0c0.123 0.029 0.211 0.104 0.264 0.226 0.055 0.115 0.067 0.238 0.037 0.367v0c-0.108 0.459-0.438 0.945-0.99 1.457-0.551 0.512-1.271 0.974-2.16 1.385-0.888 0.405-1.886 0.685-2.995 0.84-1.109 0.155-2.274 0.088-3.497-0.201z" fill="#06b6d4" data-fill-palette-color="primary"></path><path d="M188.108 38.963v0c-1.245-0.66-1.868-1.642-1.868-2.944-0.007-1.305 0.51-2.939 1.55-4.9v0c0.894-1.685 1.953-3.106 3.176-4.262 1.214-1.154 2.523-2.017 3.925-2.59 1.397-0.576 2.811-0.845 4.243-0.807 1.429 0.029 2.802 0.392 4.117 1.09v0c0.81 0.43 1.54 0.99 2.19 1.68 0.658 0.688 1.202 1.323 1.63 1.904v0l-2.908 2.802c-0.401-0.747-0.863-1.451-1.385-2.112-0.516-0.658-1.017-1.217-1.503-1.678-0.476-0.463-0.864-0.775-1.164-0.933v0c-0.669-0.355-1.448-0.362-2.336-0.021-0.894 0.338-1.806 0.979-2.736 1.923-0.93 0.944-1.779 2.141-2.549 3.591v0c-0.71 1.339-1.15 2.407-1.318 3.206-0.174 0.796-0.041 1.31 0.4 1.544v0c0.37 0.196 1.12 0.158 2.251-0.115 1.136-0.27 2.64-0.928 4.512-1.974 1.872-1.046 4.094-2.632 6.667-4.758v0l-0.632 3.616c-2.689 2.117-5.066 3.677-7.133 4.679-2.073 0.999-3.857 1.561-5.353 1.686-1.502 0.121-2.76-0.088-3.776-0.627zM199.784 44.888l-2.422-1.285c-0.258-0.137-0.402-0.398-0.432-0.782-0.029-0.384 0.02-0.81 0.147-1.277 0.124-0.461 0.278-0.864 0.462-1.211v0c0.308-0.581 0.754-1.187 1.338-1.818 0.592-0.634 1.339-1.438 2.239-2.412v0l2.07-2.22-0.415-1.643 2.308-3.436 0.798-0.333 5.101-8.953 2.703 1.435c0.346 0.184 0.549 0.483 0.607 0.898 0.058 0.415 0.033 0.853-0.076 1.314-0.109 0.461-0.262 0.877-0.458 1.246v0c-0.121 0.229-0.27 0.481-0.447 0.757-0.176 0.275-0.432 0.644-0.767 1.105-0.332 0.456-0.798 1.085-1.397 1.888v0l-5.37 7.354c-0.747 1.026-1.485 2.083-2.213 3.171-0.731 1.094-1.413 2.166-2.045 3.216-0.629 1.058-1.206 2.054-1.731 2.986z" fill="#06b6d4" data-fill-palette-color="primary"></path><path d="M210.562 63.717v0c-0.905-0.862-1.599-1.785-2.084-2.771-0.489-0.989-0.678-1.986-0.566-2.99 0.117-1.009 0.626-1.987 1.529-2.935v0c0.303-0.318 0.557-0.378 0.765-0.181v0c0.096 0.092 0.185 0.245 0.265 0.459 0.076 0.219 0.175 0.515 0.296 0.888v0c0.158 0.509 0.386 1.185 0.684 2.029 0.298 0.844 0.652 1.677 1.062 2.498 0.405 0.818 0.846 1.453 1.323 1.908v0c0.298 0.284 0.649 0.49 1.052 0.616 0.398 0.131 0.901 0.133 1.509 0.005 0.608-0.118 1.356-0.416 2.242-0.893 0.882-0.473 1.958-1.169 3.228-2.088v0l8.746-6.334 0.134-1.167 3.488-3.603c1.355 0.997 2.377 1.682 3.068 2.055 0.695 0.369 1.146 0.651 1.353 0.849v0c0.193 0.183 0.179 0.391-0.041 0.621v0c-0.087 0.091-0.583 0.376-1.489 0.854-0.905 0.469-2.013 1.125-3.323 1.971-1.31 0.845-2.64 1.923-3.99 3.235v0l-5.064 4.911c-1.318 1.268-2.642 2.137-3.97 2.607-1.324 0.465-2.62 0.625-3.888 0.482-1.273-0.148-2.447-0.5-3.524-1.057-1.071-0.552-2.006-1.209-2.805-1.969zM214.507 56.005v0c-1.059-1.009-1.406-2.157-1.042-3.445 0.363-1.297 1.283-2.72 2.759-4.269v0c1.247-1.309 2.604-2.334 4.072-3.075 1.467-0.75 2.944-1.212 4.43-1.384 1.481-0.177 2.906-0.064 4.275 0.34 1.368 0.395 2.572 1.087 3.611 2.077v0c0.813 0.775 1.451 1.594 1.915 2.457 0.463 0.854 0.824 1.621 1.085 2.301v0l-3.663 2.198c-0.185-0.828-0.459-1.686-0.824-2.575-0.365-0.889-0.741-1.67-1.129-2.342-0.383-0.677-0.707-1.142-0.971-1.394v0c-0.529-0.504-1.258-0.693-2.186-0.568-0.933 0.121-1.946 0.51-3.039 1.167-1.094 0.657-2.163 1.533-3.209 2.631v0c-1.041 1.092-1.75 2.001-2.127 2.724-0.382 0.719-0.393 1.251-0.031 1.595v0c0.245 0.234 0.909 0.361 1.99 0.381 1.082 0.021 2.632-0.214 4.652-0.705 2.014-0.496 4.549-1.417 7.605-2.766v0l-1.613 3.283c-3.18 1.295-5.855 2.161-8.025 2.6-2.166 0.443-3.926 0.542-5.282 0.297-1.355-0.244-2.439-0.754-3.253-1.528z" fill="#06b6d4" data-fill-palette-color="primary"></path><path d="M235.463 80.864v0c-1.062-1.703-1.344-3.356-0.848-4.958 0.491-1.599 1.679-2.985 3.563-4.16v0c1.574-0.981 3.152-1.66 4.735-2.036 1.586-0.37 3.115-0.462 4.587-0.274 1.475 0.193 2.812 0.659 4.01 1.4 1.202 0.747 2.197 1.752 2.984 3.015v0c0.939 1.506 1.336 2.86 1.193 4.062-0.142 1.193-0.813 2.163-2.014 2.913v0c-1.218 0.76-2.533 1.019-3.944 0.778-1.414-0.246-2.916-0.927-4.505-2.044-1.589-1.116-3.264-2.59-5.025-4.422v0l1.728-1.676c0.921 1.125 1.887 2.078 2.898 2.858 1.009 0.789 2.022 1.297 3.041 1.523 1.019 0.227 1.962 0.069 2.83-0.472v0c0.598-0.373 0.98-0.771 1.146-1.196 0.166-0.425 0.061-0.939-0.315-1.543v0c-0.566-0.908-1.379-1.471-2.438-1.687-1.059-0.217-2.222-0.154-3.489 0.189-1.261 0.34-2.489 0.882-3.685 1.628v0c-1.619 1.009-2.545 1.935-2.779 2.778-0.232 0.834-0.044 1.739 0.564 2.715v0c0.636 1.021 1.353 1.812 2.149 2.373 0.8 0.567 1.55 1.016 2.249 1.347v0c0.225 0.11 0.409 0.211 0.553 0.301 0.152 0.093 0.256 0.185 0.312 0.275v0c0.067 0.107 0.076 0.223 0.028 0.347-0.042 0.12-0.12 0.216-0.232 0.286v0c-0.4 0.25-0.977 0.362-1.729 0.338-0.752-0.025-1.588-0.204-2.509-0.539-0.916-0.338-1.821-0.842-2.717-1.513-0.896-0.671-1.676-1.54-2.341-2.606z" fill="#06b6d4" data-fill-palette-color="primary"></path><path d="M248.358 103.839v0l5.313-2.783c2.684 0.123 5.059 0.367 7.123 0.733 2.065 0.366 3.746 0.885 5.045 1.556 1.302 0.664 2.124 1.503 2.464 2.518v0c0.19 0.567 0.147 1.034-0.129 1.4-0.275 0.373-0.686 0.651-1.235 0.835v0c-0.491 0.165-0.986 0.268-1.484 0.308-0.498 0.041-0.93 0.007-1.296-0.101-0.366-0.109-0.6-0.314-0.701-0.616v0c-0.091-0.271-0.107-0.602-0.05-0.993 0.064-0.393 0.001-0.873-0.189-1.441v0c-0.125-0.372-0.668-0.715-1.628-1.031-0.959-0.309-2.177-0.553-3.653-0.73-1.484-0.182-3.064-0.251-4.739-0.208-1.684 0.039-3.297 0.223-4.842 0.553zM245.902 101.192v0c-0.11-0.328-0.135-0.589-0.074-0.785 0.052-0.2 0.312-0.385 0.781-0.556 0.468-0.171 1.244-0.368 2.325-0.591v0l16.032-3.435 0.872 2.599c0.125 0.372-0.034 0.797-0.477 1.275-0.443 0.478-1.01 0.833-1.703 1.066v0c-0.328 0.11-0.862 0.188-1.604 0.233-0.744 0.039-1.535 0.063-2.374 0.071-0.832 0.006-1.569 0.004-2.21-0.005v0l-3.367 0.058 0.686 1.294-6.432 1.423c-0.254 0.057-0.519-0.022-0.794-0.238-0.28-0.207-0.537-0.472-0.771-0.793-0.228-0.323-0.421-0.637-0.579-0.942-0.158-0.304-0.262-0.529-0.311-0.674z" fill="#06b6d4" data-fill-palette-color="primary"></path><path d="M13.376 191.802v0c-0.874-2.412-1.217-4.628-1.028-6.647 0.182-2.017 0.915-3.778 2.201-5.282 1.286-1.505 3.11-2.685 5.472-3.541v0c2.175-0.788 4.294-1.173 6.357-1.156 2.069 0.014 4 0.407 5.792 1.178 1.799 0.77 3.385 1.909 4.759 3.42 1.38 1.508 2.467 3.358 3.262 5.552v0c0.638 1.762 0.921 3.197 0.848 4.305-0.081 1.104-0.665 1.853-1.752 2.246v0c-0.581 0.21-1.103 0.311-1.566 0.302-0.469-0.007-0.765-0.179-0.887-0.516v0c-0.088-0.244-0.108-0.523-0.059-0.837 0.046-0.321 0.096-0.682 0.148-1.083v0c0.079-0.679 0.159-1.415 0.24-2.207 0.078-0.799-0.061-1.692-0.419-2.68v0c-0.559-1.544-1.528-2.755-2.907-3.634-1.385-0.877-3.054-1.358-5.007-1.442-1.96-0.082-4.096 0.296-6.408 1.133v0c-2.15 0.779-3.694 1.794-4.633 3.046-0.937 1.258-1.362 2.798-1.276 4.618 0.089 1.827 0.579 3.972 1.471 6.434v0l12.644-3.062 1.049 2.896c0.174 0.481 0.177 0.841 0.009 1.079-0.175 0.24-0.587 0.478-1.237 0.713v0c-0.144 0.052-0.291 0.105-0.44 0.159-0.144 0.052-0.292 0.092-0.445 0.119v0l-9.744 2.256c-0.734 0.16-1.399 0.245-1.996 0.257-0.597 0.011-1.02-0.21-1.269-0.665v0c-0.667-1.236-1.263-2.434-1.79-3.593-0.532-1.157-0.995-2.28-1.389-3.368z" fill="#06b6d4" data-fill-palette-color="primary"></path><path d="M29.867 220.132v0l4.185-4.139c2.558-0.664 4.86-1.12 6.906-1.368 2.043-0.254 3.772-0.254 5.188-0.001 1.412 0.247 2.426 0.801 3.041 1.659v0c0.345 0.481 0.439 0.932 0.284 1.355-0.152 0.428-0.457 0.806-0.916 1.135v0c-0.421 0.302-0.859 0.542-1.312 0.719-0.455 0.187-0.87 0.28-1.247 0.28-0.376 0-0.653-0.125-0.831-0.373v0c-0.163-0.227-0.274-0.536-0.333-0.926-0.055-0.385-0.255-0.819-0.6-1.3v0c-0.225-0.313-0.831-0.475-1.821-0.486-0.993-0.016-2.211 0.104-3.653 0.361-1.439 0.263-2.942 0.653-4.509 1.171-1.568 0.527-3.029 1.165-4.382 1.913zM26.788 218.352v0c-0.194-0.27-0.293-0.506-0.297-0.706 0-0.205 0.194-0.454 0.58-0.747 0.387-0.293 1.057-0.704 2.011-1.233v0l14.072-7.852 1.568 2.188c0.225 0.313 0.198 0.762-0.079 1.344-0.281 0.578-0.713 1.075-1.297 1.494v0c-0.27 0.194-0.748 0.417-1.432 0.671-0.685 0.254-1.422 0.504-2.21 0.75-0.785 0.252-1.477 0.466-2.079 0.643v0l-3.147 1.016 1.017 1.026-5.628 3.186c-0.226 0.129-0.501 0.134-0.824 0.015-0.319-0.115-0.633-0.29-0.942-0.528-0.314-0.233-0.587-0.471-0.818-0.713-0.241-0.245-0.406-0.429-0.495-0.554z" fill="#06b6d4" data-fill-palette-color="primary"></path><path d="M47.939 243.243l-1.965-1.84c-0.32-0.3-0.354-0.677-0.101-1.132 0.244-0.455 0.549-0.879 0.917-1.272v0c0.631-0.675 1.226-1.242 1.785-1.702 0.554-0.465 1.169-0.981 1.846-1.55v0l9.453-8.071 1.965 1.839c0.374 0.35 0.426 0.785 0.156 1.307-0.274 0.517-0.657 1.037-1.147 1.562v0c-0.245 0.262-0.524 0.52-0.835 0.775-0.311 0.255-0.783 0.647-1.414 1.175v0l-4.824 4.089c-1.025 0.862-1.892 1.579-2.602 2.152-0.705 0.569-1.305 1.059-1.8 1.471-0.494 0.421-0.972 0.82-1.434 1.197zM63.294 227.859v0c-0.529-0.495-0.819-1.099-0.871-1.812-0.052-0.713 0.195-1.361 0.74-1.943v0c0.649-0.694 1.379-1.021 2.189-0.983 0.805 0.035 1.499 0.324 2.081 0.87v0c0.543 0.509 0.85 1.091 0.919 1.747 0.069 0.665-0.194 1.316-0.789 1.952v0c-0.6 0.641-1.313 0.97-2.14 0.987-0.822 0.013-1.532-0.26-2.129-0.818z" fill="#06b6d4" data-fill-palette-color="primary"></path><path d="M67.186 257.833l-2.252-1.474c-0.389-0.255-0.535-0.688-0.437-1.299 0.093-0.615 0.354-1.226 0.784-1.835v0c0.499-0.714 1.133-1.542 1.901-2.485 0.765-0.937 1.527-1.865 2.286-2.781v0l5.876-7.01c0.761-0.884 1.354-1.723 1.779-2.517 0.434-0.796 0.787-1.518 1.06-2.166 0.267-0.651 0.536-1.182 0.806-1.594v0c0.153-0.234 0.478-0.318 0.976-0.254 0.493 0.06 1.025 0.194 1.596 0.401 0.571 0.207 1.029 0.424 1.375 0.65v0c0.367 0.24 0.518 0.713 0.454 1.417-0.068 0.71-0.327 1.41-0.779 2.1v0c-0.098 0.15-0.394 0.553-0.886 1.208-0.49 0.664-1.09 1.392-1.798 2.183v0l-5.881 6.743c-1.229 1.404-2.388 2.846-3.476 4.327-1.094 1.477-2.222 2.939-3.384 4.386z" fill="#06b6d4" data-fill-palette-color="primary"></path><path d="M88.755 268.841l-2.479-1.049c-0.428-0.181-0.649-0.581-0.661-1.2-0.018-0.621 0.13-1.27 0.444-1.945v0c0.364-0.791 0.84-1.72 1.428-2.784 0.585-1.059 1.17-2.107 1.753-3.145v0l4.532-7.944c0.592-1.005 1.026-1.937 1.302-2.794 0.285-0.861 0.504-1.634 0.658-2.32 0.147-0.688 0.316-1.259 0.508-1.712v0c0.109-0.257 0.414-0.399 0.916-0.425 0.496-0.028 1.043 0.008 1.642 0.111 0.599 0.102 1.088 0.233 1.468 0.394v0c0.404 0.171 0.637 0.609 0.699 1.314 0.06 0.711-0.071 1.446-0.392 2.205v0c-0.07 0.165-0.289 0.614-0.656 1.346-0.364 0.741-0.824 1.564-1.381 2.468v0l-4.584 7.684c-0.959 1.601-1.842 3.226-2.649 4.877-0.813 1.648-1.662 3.288-2.548 4.919z" fill="#06b6d4" data-fill-palette-color="primary"></path><path d="M134.11 278.269v0c-0.459-0.004-0.808-0.29-1.049-0.857-0.241-0.567-0.357-1.197-0.351-1.888v0c0.01-1.004 0.141-2.631 0.396-4.882v0l2.191-19.581 3.08 0.03c0.818 0.008 1.263 0.338 1.337 0.99 0.073 0.659 0.013 1.768-0.181 3.328v0l-1.931 16.313c-0.058 0.538-0.09 1.076-0.095 1.614-0.005 0.538 0.03 1.077 0.104 1.617v0l8.293-1.846c0.286-0.05 0.506-0.092 0.66-0.123 0.153-0.038 0.27-0.057 0.349-0.056v0c0.306 0.003 0.457 0.184 0.454 0.542v0c-0.006 0.645-0.122 1.312-0.348 2.001-0.226 0.689-0.534 1.271-0.924 1.746-0.39 0.468-0.867 0.7-1.433 0.694v0l-1.146-0.011c-1.927-0.018-3.503 0.006-4.727 0.075-1.217 0.061-2.185 0.129-2.903 0.201-0.719 0.066-1.31 0.097-1.776 0.093z" fill="#06b6d4" data-fill-palette-color="primary"></path><path d="M169.617 274.957v0c-1.92 0.458-3.552 0.204-4.896-0.76-1.336-0.959-2.256-2.499-2.762-4.62v0c-0.422-1.772-0.56-3.454-0.413-5.046 0.153-1.594 0.548-3.048 1.184-4.362 0.637-1.313 1.488-2.415 2.554-3.304 1.067-0.883 2.315-1.495 3.744-1.835v0c1.694-0.404 3.077-0.351 4.148 0.159 1.071 0.51 1.767 1.437 2.088 2.782v0c0.328 1.377 0.158 2.685-0.51 3.924-0.668 1.239-1.769 2.424-3.304 3.555-1.541 1.133-3.437 2.234-5.69 3.303v0l-1.021-2.134c1.336-0.503 2.525-1.104 3.567-1.803 1.049-0.701 1.838-1.49 2.367-2.368 0.529-0.878 0.678-1.801 0.447-2.772v0c-0.162-0.679-0.414-1.162-0.756-1.449-0.348-0.286-0.859-0.349-1.531-0.189v0c-1.028 0.245-1.808 0.827-2.341 1.747-0.532 0.92-0.837 2.02-0.914 3.303-0.075 1.289 0.047 2.606 0.368 3.951v0c0.435 1.823 1.006 2.975 1.715 3.455 0.709 0.48 1.613 0.589 2.712 0.327v0c1.151-0.274 2.113-0.695 2.887-1.262 0.774-0.567 1.426-1.126 1.958-1.676v0c0.17-0.177 0.32-0.319 0.452-0.426 0.13-0.113 0.244-0.181 0.341-0.204v0c0.129-0.031 0.242-0.003 0.337 0.084 0.101 0.078 0.166 0.179 0.195 0.302v0c0.108 0.453 0.033 1.027-0.224 1.724-0.259 0.69-0.689 1.411-1.289 2.162-0.6 0.751-1.351 1.439-2.255 2.065-0.91 0.627-1.963 1.083-3.158 1.367z" fill="#06b6d4" data-fill-palette-color="primary"></path><path d="M198.218 264.771v0c-1.226 0.653-2.371 0.624-3.437-0.089-1.059-0.716-2.102-2.036-3.127-3.96v0c-0.882-1.654-1.46-3.297-1.734-4.928-0.274-1.631-0.26-3.172 0.045-4.622 0.301-1.456 0.857-2.758 1.669-3.906 0.812-1.148 1.865-2.068 3.161-2.758v0c0.792-0.422 1.648-0.709 2.569-0.861 0.918-0.158 1.734-0.25 2.451-0.278v0l0.681 3.907c-0.826-0.08-1.653-0.091-2.48-0.033-0.825 0.063-1.558 0.164-2.2 0.303-0.636 0.136-1.1 0.281-1.394 0.437v0c-0.657 0.35-1.092 0.981-1.307 1.894-0.211 0.918-0.188 2.013 0.068 3.286 0.256 1.272 0.766 2.623 1.529 4.054v0c0.7 1.314 1.327 2.256 1.88 2.828 0.556 0.577 1.048 0.752 1.476 0.524v0c0.364-0.194 0.746-0.827 1.146-1.899 0.406-1.075 0.698-2.662 0.875-4.76 0.168-2.101 0.098-4.782-0.209-8.045v0l2.594 2.493c0.248 3.362 0.211 6.161-0.112 8.397-0.322 2.236-0.844 3.998-1.566 5.286-0.722 1.288-1.581 2.198-2.578 2.73zM209.46 258.519l-2.384 1.271c-0.246 0.131-0.537 0.102-0.872-0.089-0.332-0.185-0.65-0.456-0.954-0.814-0.313-0.361-0.56-0.711-0.741-1.051v0c-0.3-0.563-0.547-1.26-0.741-2.09-0.194-0.83-0.44-1.878-0.738-3.143v0l-0.682-2.913-1.562-0.557-1.526-3.774 0.17-0.825-4.492-9.084 2.649-1.412c0.34-0.181 0.697-0.183 1.07-0.005 0.367 0.181 0.71 0.442 1.028 0.785 0.309 0.34 0.561 0.692 0.755 1.055v0c0.122 0.229 0.246 0.49 0.373 0.784 0.127 0.294 0.287 0.702 0.482 1.223 0.192 0.53 0.449 1.259 0.771 2.188v0l3.051 8.417c0.42 1.17 0.873 2.352 1.359 3.546 0.492 1.191 0.993 2.337 1.504 3.436 0.513 1.09 1.006 2.107 1.48 3.052z" fill="#06b6d4" data-fill-palette-color="primary"></path><path d="M236.138 248.21v0c-0.894 0.854-1.835 1.495-2.823 1.924-0.993 0.433-1.983 0.57-2.971 0.411-0.983-0.164-1.918-0.709-2.804-1.637v0c-0.303-0.317-0.354-0.572-0.152-0.765v0c0.091-0.087 0.248-0.164 0.471-0.229 0.218-0.07 0.509-0.155 0.873-0.255v0c0.516-0.134 1.195-0.327 2.037-0.581 0.838-0.249 1.67-0.556 2.497-0.923 0.822-0.362 1.466-0.765 1.932-1.21v0c0.298-0.285 0.52-0.62 0.664-1.008 0.145-0.387 0.171-0.88 0.077-1.479-0.094-0.599-0.355-1.343-0.781-2.232-0.421-0.894-1.054-1.985-1.899-3.273v0l-5.818-8.878-1.138-0.196-3.373-3.589c1.045-1.283 1.765-2.256 2.162-2.919 0.396-0.663 0.695-1.091 0.897-1.284v0c0.187-0.179 0.389-0.156 0.605 0.07v0c0.087 0.091 0.344 0.591 0.769 1.499 0.421 0.912 1.016 2.031 1.784 3.355 0.769 1.325 1.765 2.68 2.989 4.067v0l4.59 5.197c1.182 1.353 1.971 2.694 2.369 4.025 0.397 1.321 0.495 2.602 0.292 3.843-0.198 1.237-0.595 2.37-1.192 3.399-0.593 1.035-1.278 1.924-2.057 2.668zM228.739 243.985v0c-1.038 0.992-2.185 1.278-3.44 0.859-1.25-0.424-2.601-1.395-4.051-2.914v0c-1.226-1.283-2.172-2.664-2.838-4.141-0.666-1.477-1.049-2.946-1.147-4.406-0.103-1.464 0.073-2.859 0.527-4.183 0.454-1.325 1.192-2.476 2.216-3.454v0c0.798-0.762 1.629-1.349 2.494-1.762 0.861-0.417 1.632-0.736 2.314-0.955v0l1.981 3.691c-0.821 0.15-1.675 0.382-2.561 0.696-0.886 0.313-1.67 0.643-2.35 0.989-0.685 0.351-1.157 0.65-1.417 0.898v0c-0.519 0.496-0.74 1.203-0.662 2.122 0.078 0.918 0.414 1.93 1.009 3.034 0.591 1.1 1.402 2.19 2.435 3.272v0c1.028 1.077 1.886 1.816 2.572 2.217 0.691 0.406 1.212 0.442 1.563 0.106v0c0.24-0.23 0.396-0.875 0.468-1.935 0.071-1.061-0.088-2.595-0.48-4.602-0.391-2.007-1.177-4.538-2.357-7.592v0l3.141 1.729c1.13 3.185 1.861 5.851 2.192 7.998 0.331 2.156 0.345 3.893 0.043 5.212-0.303 1.319-0.853 2.359-1.652 3.121z" fill="#06b6d4" data-fill-palette-color="primary"></path><path d="M253.291 215.475v0c-1.043 1.676-2.38 2.644-4.014 2.904-1.624 0.258-3.362-0.189-5.213-1.34v0c-1.546-0.962-2.828-2.06-3.844-3.295-1.013-1.241-1.755-2.552-2.227-3.933-0.472-1.381-0.642-2.763-0.51-4.145 0.137-1.378 0.594-2.691 1.369-3.938v0c0.92-1.479 1.94-2.414 3.06-2.805 1.12-0.391 2.267-0.222 3.441 0.508v0c1.202 0.748 2.002 1.797 2.398 3.147 0.397 1.35 0.448 2.967 0.154 4.85-0.298 1.889-0.871 4.006-1.719 6.351v0l-2.228-0.798c0.595-1.297 1.017-2.561 1.266-3.791 0.252-1.236 0.258-2.352 0.016-3.348-0.242-0.996-0.786-1.757-1.632-2.284v0c-0.593-0.369-1.112-0.535-1.557-0.498-0.449 0.042-0.856 0.356-1.221 0.943v0c-0.558 0.897-0.703 1.86-0.434 2.888 0.269 1.028 0.827 2.025 1.674 2.99 0.853 0.969 1.867 1.819 3.041 2.549v0c1.592 0.99 2.808 1.406 3.65 1.249 0.842-0.158 1.561-0.716 2.157-1.676v0c0.625-1.005 1.013-1.981 1.164-2.928 0.151-0.947 0.221-1.803 0.212-2.568v0c-0.004-0.245 0.003-0.452 0.022-0.621 0.013-0.172 0.046-0.3 0.098-0.385v0c0.07-0.113 0.17-0.172 0.299-0.178 0.127-0.015 0.244 0.011 0.351 0.078v0c0.395 0.246 0.746 0.707 1.053 1.383 0.302 0.673 0.503 1.487 0.606 2.443 0.102 0.956 0.052 1.974-0.15 3.053-0.205 1.085-0.633 2.15-1.282 3.195z" fill="#06b6d4" data-fill-palette-color="primary"></path><path d="M265.287 187.07v0l-5.807-0.964c-2.037-1.683-3.756-3.281-5.156-4.794-1.403-1.506-2.417-2.907-3.042-4.202-0.627-1.289-0.773-2.435-0.438-3.437v0c0.188-0.561 0.498-0.902 0.931-1.024 0.435-0.128 0.921-0.102 1.456 0.077v0c0.492 0.164 0.942 0.378 1.352 0.642 0.418 0.259 0.737 0.541 0.958 0.846 0.22 0.305 0.282 0.602 0.185 0.892v0c-0.089 0.265-0.274 0.536-0.556 0.813-0.28 0.271-0.513 0.687-0.701 1.248v0c-0.122 0.366 0.102 0.952 0.673 1.76 0.569 0.814 1.38 1.73 2.435 2.748 1.056 1.012 2.253 2.001 3.591 2.967 1.346 0.962 2.719 1.771 4.119 2.428zM265.649 190.608v0c-0.105 0.315-0.238 0.534-0.398 0.655-0.166 0.12-0.481 0.109-0.945-0.032-0.464-0.141-1.19-0.444-2.178-0.907v0l-14.61-6.798 0.854-2.553c0.122-0.366 0.501-0.607 1.135-0.724 0.633-0.111 1.29-0.052 1.971 0.175v0c0.315 0.105 0.776 0.361 1.383 0.767 0.607 0.406 1.241 0.857 1.903 1.351 0.664 0.488 1.243 0.924 1.739 1.307v0l2.669 1.954 0.234-1.424 5.881 2.691c0.237 0.107 0.402 0.327 0.494 0.66 0.094 0.326 0.136 0.683 0.125 1.072-0.005 0.391-0.037 0.751-0.098 1.081-0.057 0.338-0.11 0.58-0.159 0.725z" fill="#06b6d4" data-fill-palette-color="primary"></path><path d="M3.871 142.706c0-5.753 4.664-10.416 10.416-10.416 5.753 0 10.416 4.664 10.417 10.416 0 5.753-4.664 10.416-10.417 10.416-5.753 0-10.416-4.664-10.416-10.416z" fill="#06b6d4" data-fill-palette-color="primary"></path><path d="M253.566 142.706c0-5.753 4.664-10.416 10.416-10.416 5.753 0 10.416 4.664 10.417 10.416 0 5.753-4.664 10.416-10.417 10.416-5.753 0-10.416-4.664-10.416-10.416z" fill="#06b6d4" data-fill-palette-color="primary"></path></g><g id="text-1"></g></svg></g><g transform="matrix(1,0,0,1,53.1494936,295.17190000000005)"><svg viewBox="0 0 171.97061280000003 13.010702394337303" height="13.010702394337303" width="171.97061280000003"><g transform="matrix(1,0,0,1,0,0)"><svg width="171.97061280000003" viewBox="4.49 -36.01 475.94 36.01" height="13.010702394337303" data-palette-color="#06b6d4"><path d="M24.05 0L22.56 0 9.5-25.66 9.5 0 4.49 0 4.49-35.01 9.96-35.01 23.29-8.64 36.65-35.01 42.09-35.01 42.09 0 37.11 0 37.11-25.66 24.05 0ZM73.09-21.19L73.09-4.81Q73.09-3.81 72.71-2.93 72.34-2.05 71.69-1.4 71.04-0.76 70.18-0.38 69.31 0 68.31 0L68.31 0 55.39 0Q54.42 0 53.54-0.38 52.66-0.76 52.01-1.4 51.36-2.05 50.99-2.93 50.61-3.81 50.61-4.81L50.61-4.81 50.61-21.19Q50.61-22.19 50.99-23.07 51.36-23.95 52.01-24.6 52.66-25.24 53.54-25.62 54.42-26 55.39-26L55.39-26 68.31-26Q69.31-26 70.18-25.62 71.04-25.24 71.69-24.6 72.34-23.95 72.71-23.07 73.09-22.19 73.09-21.19L73.09-21.19ZM68.31-21.19L55.39-21.19 55.39-4.81 68.31-4.81 68.31-21.19ZM81.1-4.81L81.1-21.19Q81.1-22.19 81.48-23.07 81.86-23.95 82.5-24.6 83.15-25.24 84.03-25.62 84.91-26 85.88-26L85.88-26 99.29-26 99.29-36.01 104.1-36.01 104.1 0 99.29 0 99.29-4.39Q99.21-3.49 98.8-2.69 98.38-1.88 97.74-1.28 97.09-0.68 96.26-0.34 95.43 0 94.5 0L94.5 0 85.88 0Q84.91 0 84.03-0.38 83.15-0.76 82.5-1.4 81.86-2.05 81.48-2.93 81.1-3.81 81.1-4.81L81.1-4.81ZM85.88-21.19L85.88-4.81 99.29-4.81 99.29-21.19 85.88-21.19ZM134.1-21.19L134.1-10.55 116.89-10.55 116.89-4.81 134.1-4.81 134.1 0 116.89 0Q115.91 0 115.03-0.38 114.15-0.76 113.51-1.4 112.86-2.05 112.48-2.93 112.1-3.81 112.1-4.81L112.1-4.81 112.1-21.19Q112.1-22.19 112.48-23.07 112.86-23.95 113.51-24.6 114.15-25.24 115.03-25.62 115.91-26 116.89-26L116.89-26 129.29-26Q130.29-26 131.17-25.62 132.05-25.24 132.7-24.6 133.34-23.95 133.72-23.07 134.1-22.19 134.1-21.19L134.1-21.19ZM129.29-21.19L116.89-21.19 116.89-15.36 129.29-15.36 129.29-21.19ZM156.8-21.19L146.89-21.19 146.89 0 142.1 0 142.1-26 146.89-26 146.89-21.41Q146.94-22.36 147.33-23.21 147.72-24.05 148.37-24.67 149.01-25.29 149.87-25.65 150.72-26 151.7-26L151.7-26 156.8-26Q157.8-26 158.67-25.62 159.54-25.24 160.2-24.6 160.85-23.95 161.23-23.07 161.61-22.19 161.61-21.19L161.61-21.19 161.61-16.8 156.8-16.8 156.8-21.19ZM190.59-21.19L190.59 0 185.78 0 185.78-21.19 172.38-21.19 172.38 0 167.59 0 167.59-26 172.38-26 172.38-21.41Q172.42-22.36 172.81-23.21 173.21-24.05 173.85-24.67 174.5-25.29 175.35-25.65 176.21-26 177.18-26L177.18-26 185.78-26Q186.78-26 187.66-25.62 188.54-25.24 189.18-24.6 189.83-23.95 190.21-23.07 190.59-22.19 190.59-21.19L190.59-21.19ZM231.77-31.2L223.22-31.2 223.22-26 231.77-26 231.77-21.19 223.22-21.19 223.22 0 218.42 0 218.42-21.19 212.07-21.19 212.07-26 218.42-26 218.42-31.2Q218.42-32.2 218.79-33.07 219.17-33.94 219.83-34.59 220.49-35.25 221.37-35.63 222.25-36.01 223.22-36.01L223.22-36.01 231.77-36.01 231.77-31.2ZM260.77-21.19L260.77-4.81Q260.77-3.81 260.39-2.93 260.01-2.05 259.37-1.4 258.72-0.76 257.85-0.38 256.99 0 255.99 0L255.99 0 243.07 0Q242.09 0 241.22-0.38 240.34-0.76 239.69-1.4 239.04-2.05 238.66-2.93 238.29-3.81 238.29-4.81L238.29-4.81 238.29-21.19Q238.29-22.19 238.66-23.07 239.04-23.95 239.69-24.6 240.34-25.24 241.22-25.62 242.09-26 243.07-26L243.07-26 255.99-26Q256.99-26 257.85-25.62 258.72-25.24 259.37-24.6 260.01-23.95 260.39-23.07 260.77-22.19 260.77-21.19L260.77-21.19ZM255.99-21.19L243.07-21.19 243.07-4.81 255.99-4.81 255.99-21.19ZM291.26-21.19L291.26-4.81Q291.26-3.81 290.88-2.93 290.5-2.05 289.86-1.4 289.21-0.76 288.34-0.38 287.48 0 286.48 0L286.48 0 273.56 0Q272.58 0 271.71-0.38 270.83-0.76 270.18-1.4 269.53-2.05 269.15-2.93 268.78-3.81 268.78-4.81L268.78-4.81 268.78-21.19Q268.78-22.19 269.15-23.07 269.53-23.95 270.18-24.6 270.83-25.24 271.71-25.62 272.58-26 273.56-26L273.56-26 286.48-26Q287.48-26 288.34-25.62 289.21-25.24 289.86-24.6 290.5-23.95 290.88-23.07 291.26-22.19 291.26-21.19L291.26-21.19ZM286.48-21.19L273.56-21.19 273.56-4.81 286.48-4.81 286.48-21.19ZM299.27-4.81L299.27-21.19Q299.27-22.19 299.65-23.07 300.02-23.95 300.67-24.6 301.32-25.24 302.2-25.62 303.08-26 304.05-26L304.05-26 317.46-26 317.46-36.01 322.27-36.01 322.27 0 317.46 0 317.46-4.39Q317.38-3.49 316.97-2.69 316.55-1.88 315.91-1.28 315.26-0.68 314.43-0.34 313.6 0 312.67 0L312.67 0 304.05 0Q303.08 0 302.2-0.38 301.32-0.76 300.67-1.4 300.02-2.05 299.65-2.93 299.27-3.81 299.27-4.81L299.27-4.81ZM304.05-21.19L304.05-4.81 317.46-4.81 317.46-21.19 304.05-21.19ZM362.45-21.19L350.04-21.19 350.04-4.81 362.45-4.81 362.45-9.2 367.26-9.2 367.26-4.81Q367.26-3.81 366.88-2.93 366.5-2.05 365.85-1.4 365.2-0.76 364.33-0.38 363.45 0 362.45 0L362.45 0 350.04 0Q349.07 0 348.19-0.38 347.31-0.76 346.66-1.4 346.01-2.05 345.64-2.93 345.26-3.81 345.26-4.81L345.26-4.81 345.26-21.19Q345.26-22.19 345.64-23.07 346.01-23.95 346.66-24.6 347.31-25.24 348.19-25.62 349.07-26 350.04-26L350.04-26 362.45-26Q363.45-26 364.33-25.62 365.2-25.24 365.85-24.6 366.5-23.95 366.88-23.07 367.26-22.19 367.26-21.19L367.26-21.19 367.26-16.8 362.45-16.8 362.45-21.19ZM397.75-21.19L397.75-4.81Q397.75-3.81 397.37-2.93 396.99-2.05 396.34-1.4 395.7-0.76 394.83-0.38 393.96 0 392.96 0L392.96 0 380.05 0Q379.07 0 378.19-0.38 377.31-0.76 376.66-1.4 376.02-2.05 375.64-2.93 375.26-3.81 375.26-4.81L375.26-4.81 375.26-21.19Q375.26-22.19 375.64-23.07 376.02-23.95 376.66-24.6 377.31-25.24 378.19-25.62 379.07-26 380.05-26L380.05-26 392.96-26Q393.96-26 394.83-25.62 395.7-25.24 396.34-24.6 396.99-23.95 397.37-23.07 397.75-22.19 397.75-21.19L397.75-21.19ZM392.96-21.19L380.05-21.19 380.05-4.81 392.96-4.81 392.96-21.19ZM405.75-4.81L405.75-26 410.54-26 410.54-4.81 423.94-4.81 423.94-26 428.75-26 428.75 0 423.94 0 423.94-4.39Q423.87-3.49 423.45-2.69 423.04-1.88 422.39-1.28 421.74-0.68 420.91-0.34 420.08 0 419.15 0L419.15 0 410.54 0Q409.56 0 408.68-0.38 407.8-0.76 407.15-1.4 406.51-2.05 406.13-2.93 405.75-3.81 405.75-4.81L405.75-4.81ZM451.45-21.19L441.54-21.19 441.54 0 436.75 0 436.75-26 441.54-26 441.54-21.41Q441.59-22.36 441.98-23.21 442.37-24.05 443.02-24.67 443.66-25.29 444.52-25.65 445.37-26 446.35-26L446.35-26 451.45-26Q452.45-26 453.32-25.62 454.19-25.24 454.85-24.6 455.5-23.95 455.88-23.07 456.26-22.19 456.26-21.19L456.26-21.19 456.26-16.8 451.45-16.8 451.45-21.19ZM460.73-21.19L460.73-26 467.07-26 467.07-34.01 471.88-34.01 471.88-26 480.43-26 480.43-21.19 471.88-21.19 471.88-4.81 480.43-4.81 480.43 0 471.88 0Q470.91 0 470.03-0.38 469.15-0.76 468.49-1.4 467.83-2.05 467.45-2.93 467.07-3.81 467.07-4.81L467.07-4.81 467.07-21.19 460.73-21.19Z" opacity="1" transform="matrix(1,0,0,1,0,0)" fill="#06b6d4" class="slogan-text-1" data-fill-palette-color="secondary" id="text-1"></path></svg></g></svg></g></svg></g></svg></g><g></g></svg></g><defs></defs></svg><rect width="252.82247406134454" height="280" fill="none" stroke="none" visibility="hidden"></rect></g></svg></g></svg>